<?xml version="1.0" standalone="no"?>
<!DOCTYPE svg PUBLIC "-//W3C//DTD SVG 20010904//EN"
 "http://www.w3.org/TR/2001/REC-SVG-20010904/DTD/svg10.dtd">
<svg version="1.0" xmlns="http://www.w3.org/2000/svg"
 width="1924.000000pt" height="1924.000000pt" viewBox="0 0 1924.000000 1924.000000"
 preserveAspectRatio="xMidYMid meet">
<metadata>
Created by potrace 1.14, written by Peter Selinger 2001-2017
</metadata>
<g transform="translate(0.000000,1924.000000) scale(0.100000,-0.100000)"
fill="#000000" stroke="none">
<path d="M9165 19072 c-18 -6 -226 -115 -315 -165 -44 -25 -169 -92 -235 -127
-184 -97 -270 -145 -273 -152 -2 -4 -8 -8 -14 -8 -6 0 -99 -48 -207 -107 -108
-58 -239 -129 -291 -156 -52 -27 -103 -57 -112 -65 -10 -8 -18 -12 -18 -7 0 4
-6 3 -12 -3 -12 -8 -120 -68 -338 -185 -41 -22 -93 -50 -115 -62 -22 -12 -80
-43 -130 -70 -49 -26 -94 -51 -100 -55 -9 -6 -153 -84 -239 -129 -17 -9 -33
-18 -36 -21 -3 -3 -32 -19 -65 -36 -33 -17 -100 -52 -150 -79 -84 -45 -121
-65 -250 -135 -27 -15 -90 -49 -140 -75 -49 -26 -94 -51 -100 -55 -10 -7 -173
-94 -260 -139 -27 -14 -52 -28 -55 -31 -3 -4 -25 -16 -50 -28 -25 -12 -72 -36
-105 -55 -33 -18 -100 -54 -150 -81 -104 -57 -159 -109 -176 -166 -7 -22 -17
-44 -23 -50 -7 -5 -41 -10 -76 -11 -67 -2 -96 -13 -242 -92 -38 -21 -98 -53
-135 -73 -71 -38 -130 -70 -223 -121 -30 -17 -91 -50 -135 -73 -89 -47 -105
-56 -420 -227 -121 -66 -254 -138 -295 -160 -41 -22 -100 -54 -130 -70 -30
-17 -102 -55 -160 -85 -58 -31 -125 -67 -150 -80 -25 -14 -81 -45 -125 -68
-44 -24 -105 -57 -135 -73 -30 -17 -83 -45 -117 -63 -34 -18 -115 -62 -180
-97 -65 -35 -154 -83 -198 -107 -44 -23 -98 -53 -120 -65 -22 -12 -80 -44
-130 -70 -49 -26 -110 -59 -135 -73 -58 -32 -156 -84 -245 -131 -38 -20 -72
-38 -75 -41 -3 -3 -27 -17 -55 -32 -77 -41 -165 -88 -220 -118 -27 -15 -90
-49 -140 -75 -148 -80 -177 -99 -206 -135 -59 -73 -56 74 -54 -2630 1 -2746
-5 -2514 64 -2592 28 -32 29 -37 15 -49 -29 -24 -61 -83 -71 -129 -5 -27 -9
-1026 -8 -2535 l0 -2490 25 -49 c27 -52 54 -71 190 -131 36 -15 99 -44 140
-63 41 -19 98 -44 125 -57 28 -12 73 -32 100 -45 51 -23 92 -41 180 -80 51
-23 122 -55 230 -105 33 -15 101 -45 150 -67 50 -22 110 -49 135 -60 25 -11
69 -31 97 -44 29 -13 79 -36 110 -50 223 -101 323 -144 332 -144 6 0 11 -4 11
-10 0 -5 7 -10 15 -10 8 0 38 -11 67 -24 29 -13 73 -33 98 -44 128 -57 241
-107 290 -129 30 -14 116 -52 190 -84 74 -33 144 -64 155 -69 105 -48 170 -77
290 -129 77 -34 149 -66 160 -71 131 -60 198 -90 200 -90 4 0 261 -114 443
-196 29 -13 80 -36 115 -50 34 -14 91 -40 127 -56 36 -17 79 -36 95 -43 17 -8
89 -39 160 -71 112 -49 139 -58 190 -58 33 1 74 4 92 8 29 8 33 6 52 -31 21
-43 89 -109 124 -122 27 -11 540 -236 582 -255 17 -8 57 -27 90 -41 33 -15 74
-33 90 -40 17 -8 55 -25 85 -38 253 -112 324 -144 388 -173 41 -19 76 -34 78
-34 2 0 43 -18 90 -40 47 -22 89 -40 92 -40 4 0 20 -7 35 -15 15 -8 69 -32
120 -54 51 -21 117 -50 147 -64 30 -14 179 -80 330 -147 151 -66 289 -127 305
-135 17 -7 109 -48 205 -90 96 -42 195 -85 220 -97 25 -11 101 -45 170 -75
140 -61 171 -75 283 -127 44 -20 81 -36 84 -36 4 0 31 -12 62 -26 57 -26 107
-49 171 -77 19 -8 100 -44 180 -80 411 -184 402 -180 462 -181 59 0 104 19
298 125 198 107 332 180 400 217 111 59 156 84 480 259 162 88 340 183 394
212 55 28 104 55 110 60 6 5 56 32 111 61 122 64 203 107 275 147 232 127 326
178 330 178 3 0 37 20 77 43 39 23 74 42 77 42 3 0 27 13 53 28 26 16 107 59
178 97 72 37 135 71 140 75 6 4 48 28 95 53 47 24 108 57 135 72 28 15 77 41
110 58 33 17 62 34 65 37 3 3 34 20 70 39 62 32 109 57 288 153 256 137 279
153 313 219 16 33 22 36 56 35 91 -5 134 15 593 266 25 14 83 45 130 70 83 45
158 86 250 136 25 14 72 39 105 57 33 17 87 46 120 64 154 84 185 101 250 136
39 21 104 56 145 78 41 22 80 43 85 47 6 4 53 29 105 55 52 27 129 67 170 90
41 23 118 65 170 93 52 27 115 61 140 75 25 14 70 37 100 53 30 15 57 30 60
34 3 3 20 12 39 20 18 7 48 24 67 36 19 13 34 21 34 17 0 -3 6 0 14 6 13 11
46 30 181 101 39 20 149 80 245 132 96 52 216 116 265 143 50 26 104 56 120
65 17 10 68 38 115 63 503 266 535 288 562 384 11 37 13 526 12 2542 -2 2777
5 2530 -69 2608 l-34 36 35 40 c73 81 67 -162 68 2612 2 2766 7 2545 -63 2627
-32 37 -62 55 -196 113 -22 10 -62 28 -89 41 -28 13 -53 24 -57 24 -4 0 -45
18 -91 39 -45 21 -157 71 -248 111 -91 40 -190 83 -220 97 -30 14 -68 31 -85
38 -16 8 -113 50 -215 95 -102 45 -201 89 -220 97 -19 8 -53 23 -75 33 -22 10
-78 35 -125 56 -47 20 -113 50 -147 65 -34 16 -65 29 -68 29 -5 0 -436 189
-560 245 -27 13 -93 42 -145 65 -118 52 -138 60 -225 100 -38 18 -122 55 -185
82 -63 28 -134 59 -157 69 -24 11 -64 28 -90 40 -27 11 -66 29 -88 39 -63 29
-130 59 -265 117 -69 30 -147 65 -175 78 -27 12 -124 55 -215 95 -91 40 -190
84 -220 97 -112 51 -152 63 -204 63 -29 0 -56 -3 -60 -7 -4 -4 -17 -8 -29 -10
-19 -3 -26 5 -41 47 -23 64 -76 110 -182 157 -44 19 -107 48 -142 64 -35 16
-65 29 -68 29 -2 0 -43 18 -90 40 -47 22 -88 40 -90 40 -4 0 -79 34 -190 85
-39 18 -81 36 -95 40 -13 4 -28 11 -34 15 -5 4 -53 26 -105 48 -52 22 -126 54
-165 72 -131 59 -160 73 -212 96 -28 13 -54 24 -56 24 -3 0 -38 15 -79 34
-137 63 -329 146 -338 146 -6 0 -10 5 -10 10 0 6 -10 10 -23 10 -13 0 -27 4
-33 9 -8 7 -112 55 -229 106 -56 24 -130 57 -193 86 -35 16 -65 29 -67 29 -3
0 -28 11 -57 24 -59 28 -426 191 -473 211 -16 7 -66 28 -110 48 -44 19 -107
47 -140 62 -33 15 -76 33 -95 42 -19 8 -48 21 -65 28 -116 52 -173 78 -190 85
-11 5 -193 86 -405 180 -349 156 -391 172 -450 175 -36 2 -74 1 -85 -3z"/>
</g>
</svg>
